<svg version="1.2" baseProfile="tiny-ps" xmlns="http://www.w3.org/2000/svg" viewBox="0 0 76 72" width="76" height="72">
	<title>search-svg</title>
	<style>
		tspan { white-space:pre }
		.shp0 { fill: #ffffff } 
		.shp1 { fill: none;stroke: #f44a45;stroke-linecap:round;stroke-linejoin:round;stroke-width: 2.67 } 
	</style>
	<g id="Layer">
		<path id="Layer" class="shp0" d="M-1 4.17C-1 1.87 0.87 0 3.17 0L70.83 0C73.13 0 75 1.87 75 4.17L75 68.83C75 71.13 73.13 73 70.83 73L3.17 73C0.87 73 -1 71.13 -1 68.83L-1 4.17Z" />
	</g>
	<path id="Layer" class="shp1" d="M34.56 45.13C40.95 45.13 46.13 39.95 46.13 33.56C46.13 27.18 40.95 22 34.56 22C28.18 22 23 27.18 23 33.56C23 39.95 28.18 45.13 34.56 45.13Z" />
	<path id="Layer" class="shp1" d="M51.91 50.91L42.73 41.73" />
</svg>