<svg version="1.2" baseProfile="tiny-ps" xmlns="http://www.w3.org/2000/svg" viewBox="0 0 501 634" width="501" height="634">
	<title>report-svg</title>
	<defs>
		<linearGradient id="grd1" gradientUnits="userSpaceOnUse"  x1="234" y1="1138.5" x2="234" y2="-35">
			<stop offset="0" stop-color="#fffbfb"  />
			<stop offset="1" stop-color="#fdfdfd"  />
		</linearGradient>
		<clipPath clipPathUnits="userSpaceOnUse" id="cp1">
			<path d="M54 320.65C54 319.19 55.19 318 56.65 318L100.35 318C101.81 318 103 319.19 103 320.65L103 350.35C103 351.81 101.81 353 100.35 353L56.65 353C55.19 353 54 351.81 54 350.35L54 320.65Z" />
		</clipPath>
		<clipPath clipPathUnits="userSpaceOnUse" id="cp2">
			<path d="M54.34 244.69C54.34 243.39 55.39 242.34 56.69 242.34L100.31 242.34C101.61 242.34 102.66 243.39 102.66 244.69L102.66 274.31C102.66 275.61 101.61 276.66 100.31 276.66L56.69 276.66C55.39 276.66 54.34 275.61 54.34 274.31L54.34 244.69Z" />
		</clipPath>
		<clipPath clipPathUnits="userSpaceOnUse" id="cp3">
			<path d="M54 168.69C54 167.21 55.21 166 56.69 166L100.31 166C101.79 166 103 167.21 103 168.69L103 198.31C103 199.79 101.79 201 100.31 201L56.69 201C55.21 201 54 199.79 54 198.31L54 168.69Z" />
		</clipPath>
		<linearGradient id="grd2" gradientUnits="userSpaceOnUse"  x1="56.332" y1="168.333" x2="56.332" y2="180">
			<stop offset="0" stop-color="#ffffff"  />
			<stop offset="1" stop-color="#f0f0f0"  />
		</linearGradient>
		<clipPath clipPathUnits="userSpaceOnUse" id="cp4">
			<path d="M54 396.65C54 395.19 55.19 394 56.65 394L100.35 394C101.81 394 103 395.19 103 396.65L103 426.35C103 427.81 101.81 429 100.35 429L56.65 429C55.19 429 54 427.81 54 426.35L54 396.65Z" />
		</clipPath>
		<clipPath clipPathUnits="userSpaceOnUse" id="cp5">
			<path d="M54 472.69C54 471.21 55.21 470 56.69 470L100.31 470C101.79 470 103 471.21 103 472.69L103 502.31C103 503.79 101.79 505 100.31 505L56.69 505C55.21 505 54 503.79 54 502.31L54 472.69Z" />
		</clipPath>
		<clipPath clipPathUnits="userSpaceOnUse" id="cp6">
			<path d="M54.34 548.69C54.34 547.39 55.39 546.34 56.69 546.34L100.31 546.34C101.61 546.34 102.66 547.39 102.66 548.69L102.66 578.31C102.66 579.61 101.61 580.66 100.31 580.66L56.69 580.66C55.39 580.66 54.34 579.61 54.34 578.31L54.34 548.69Z" />
		</clipPath>
		<clipPath clipPathUnits="userSpaceOnUse" id="cp7">
			<path d="M76.14 560.91C75.44 561.55 75 562.48 75 563.5C75 565.43 76.57 567 78.5 567C80.43 567 82 565.43 82 563.5C82 562.49 81.57 561.59 80.9 560.95" />
		</clipPath>
	</defs>
	<style>
		tspan { white-space:pre }
		.shp0 { fill: url(#grd1) } 
		.shp1 { fill: #ffffff } 
		.shp2 { fill: #f1361d } 
		.shp3 { fill: #ffdc42 } 
		.shp4 { fill: #13615f } 
		.shp5 { fill: #035755 } 
		.shp6 { fill: #128e5a } 
		.shp7 { fill: #ffffff;stroke: #f5f5f5;stroke-width: 0.673 } 
		.shp8 { fill: #e43d4c } 
		.shp9 { fill: #1bb65d } 
		.shp10 { fill: #f44a45 } 
		.shp11 { fill: #d02f44 } 
		.shp12 { fill: #46467f } 
		.shp13 { fill: url(#grd2) } 
		.shp14 { fill: #dd172c } 
		.shp15 { fill: #ffd133 } 
		.shp16 { fill: #ffedb1 } 
		.shp17 { fill: none;stroke: #a41517;stroke-width: 0.883 } 
		.shp18 { fill: #a41517 } 
		.shp19 { fill: #262626 } 
		.shp20 { fill: #f01515 } 
		.shp21 { fill: #ffd521 } 
		.shp22 { fill: #38bb56 } 
		.shp23 { fill: #de1b27 } 
		.shp24 { opacity: 0.502;fill: #ffffff } 
		.shp25 { fill: #d80915 } 
		.shp26 { fill: none;stroke: #a2a5b2;stroke-linecap:round;stroke-linejoin:round;stroke-width: 2.85 } 
		.shp27 { fill: none;stroke: #f44a45;stroke-linecap:round;stroke-linejoin:round;stroke-width: 2.85 } 
		.shp28 { fill: none;stroke: #dee1ed;stroke-linecap:round;stroke-width: 2.23 } 
	</style>
	<g id="Layer">
		<path id="Layer" class="shp0" d="M-1 -1L503 -1L503 634L-1 634L-1 -1Z" />
	</g>
	<path id="Layer" class="shp1" d="M54 320.65C54 319.19 55.19 318 56.65 318L100.35 318C101.81 318 103 319.19 103 320.65L103 350.35C103 351.81 101.81 353 100.35 353L56.65 353C55.19 353 54 351.81 54 350.35L54 320.65Z" />
	<g id="Clip-Path" clip-path="url(#cp1)">
		<g id="Layer">
			<path id="Layer" class="shp2" d="M54 318L103 318L103 353L54 353L54 318Z" />
			<path id="Layer" fill-rule="evenodd" class="shp3" d="M72.79 327.15L73.08 325.46L74.35 326.62L76.05 326.91L74.89 328.18L74.6 329.87L73.33 328.71L71.63 328.43L72.79 327.15ZM76.21 332.63L75.31 331.17L77.03 331.2L78.5 330.31L78.46 332.03L79.36 333.5L77.64 333.46L76.17 334.35L76.21 332.63ZM74.18 343.95L72.74 344.89L72.72 343.17L71.78 341.74L73.5 341.72L74.94 340.77L74.96 342.49L75.9 343.93L74.18 343.95ZM76.19 337.96L76 336.25L77.54 337.02L79.25 336.83L78.49 338.37L78.68 340.08L77.13 339.31L75.43 339.5L76.19 337.96Z" />
			<path id="Layer" fill-rule="evenodd" class="shp3" d="M65.67 337.4L61.55 340.33L63.07 335.51L59.01 332.5L64.06 332.46L65.67 327.67L67.27 332.46L72.32 332.5L68.26 335.51L69.78 340.33L65.67 337.4Z" />
		</g>
	</g>
	<path id="Layer" fill-rule="evenodd" class="shp4" d="M141.35 347.41C139.37 347.41 137.59 346.98 136.04 346.12C134.5 345.26 133.29 344.05 132.42 342.47C131.55 340.9 131.12 339.09 131.12 337.06C131.12 335.03 131.55 333.23 132.41 331.67C133.26 330.09 134.47 328.88 136.01 328.02C137.56 327.16 139.34 326.73 141.35 326.73C143.01 326.73 144.52 327.01 145.89 327.58C147.27 328.14 148.4 328.96 149.3 330.03C150.2 331.09 150.77 332.32 151.03 333.73L146.98 333.73C146.67 332.65 146 331.78 144.99 331.11C143.97 330.42 142.75 330.08 141.32 330.08C140.04 330.08 138.91 330.37 137.93 330.94C136.96 331.51 136.22 332.34 135.69 333.41C135.17 334.47 134.9 335.69 134.9 337.08C134.9 338.49 135.17 339.72 135.71 340.78C136.24 341.83 136.99 342.63 137.96 343.19C138.94 343.74 140.06 344.02 141.32 344.02C142.71 344.02 143.91 343.69 144.94 343.02C145.98 342.34 146.66 341.45 146.98 340.34L151.03 340.34C150.79 341.72 150.23 342.95 149.34 344.03C148.46 345.1 147.33 345.94 145.95 346.53C144.58 347.12 143.05 347.41 141.35 347.41ZM153.72 325.73L157.19 325.73L157.19 334.79C157.6 334.15 158.19 333.65 158.96 333.29C159.72 332.92 160.55 332.74 161.44 332.74C163.07 332.74 164.34 333.25 165.24 334.25C166.14 335.25 166.58 336.65 166.58 338.45L166.58 347L163.12 347L163.12 339.25C163.12 337.97 162.84 337.08 162.27 336.6C161.72 336.12 161.09 335.88 160.38 335.88C159.55 335.88 158.81 336.12 158.14 336.6C157.48 337.08 157.16 337.91 157.16 339.07L157.16 347L153.72 347L153.72 325.73ZM172.02 330.47C171.31 330.47 170.73 330.25 170.28 329.81C169.82 329.36 169.6 328.81 169.6 328.15C169.6 327.49 169.82 326.94 170.28 326.5C170.73 326.07 171.31 325.85 172.02 325.85C172.73 325.85 173.3 326.07 173.73 326.5C174.17 326.94 174.4 327.49 174.4 328.15C174.4 328.79 174.17 329.33 173.71 329.79C173.26 330.24 172.7 330.47 172.02 330.47ZM170.28 333.18L173.75 333.18L173.75 347L170.28 347L170.28 333.18ZM185.17 332.74C186.78 332.74 188.04 333.25 188.97 334.27C189.91 335.28 190.38 336.67 190.38 338.45L190.38 347L186.9 347L186.9 339.25C186.9 337 185.98 335.88 184.14 335.88C183.15 335.88 182.39 336.16 181.84 336.74C181.31 337.31 181.04 338.09 181.04 339.07L181.04 347L177.61 347L177.61 333.18L180.48 333.18L180.74 334.85C181.17 334.21 181.79 333.7 182.58 333.32C183.38 332.93 184.25 332.74 185.17 332.74ZM208.09 333.18L208.09 347L204.77 347L204.77 345.05C204.3 345.77 203.62 346.35 202.73 346.77C201.85 347.2 200.87 347.41 199.78 347.41C198.5 347.41 197.36 347.11 196.36 346.52C195.37 345.91 194.6 345.06 194.06 343.97C193.51 342.87 193.24 341.6 193.24 340.14C193.24 338.68 193.53 337.39 194.1 336.27C194.68 335.14 195.48 334.27 196.51 333.67C197.55 333.05 198.74 332.74 200.08 332.74C201.13 332.74 202.08 332.93 202.91 333.32C203.76 333.7 204.43 334.24 204.93 334.94L205.2 333.18L208.09 333.18ZM200.64 344.27C201.8 344.27 202.75 343.88 203.47 343.1C204.21 342.31 204.58 341.28 204.58 340.02C204.58 338.76 204.22 337.75 203.5 337C202.8 336.23 201.85 335.84 200.67 335.84C199.49 335.84 198.54 336.23 197.83 337.01C197.12 337.78 196.77 338.79 196.77 340.05C196.77 341.31 197.13 342.33 197.84 343.11C198.56 343.89 199.49 344.27 200.64 344.27Z" />
	<path id="Layer" fill-rule="evenodd" class="shp5" d="M348.83 336.82C349.58 337.13 350.16 337.61 350.59 338.29C351.01 338.96 351.22 339.72 351.22 340.58C351.22 341.53 350.97 342.35 350.48 343.04C350 343.74 349.33 344.27 348.49 344.65C347.65 345.02 346.71 345.21 345.65 345.21C344.58 345.21 343.62 345.02 342.76 344.65C341.91 344.27 341.24 343.73 340.75 343.03C340.28 342.33 340.04 341.5 340.04 340.56C340.04 339.69 340.25 338.93 340.68 338.27C341.12 337.61 341.7 337.12 342.42 336.8C341.86 336.46 341.4 336 341.06 335.4C340.71 334.81 340.54 334.17 340.54 333.48C340.54 332.68 340.76 331.97 341.19 331.35C341.63 330.72 342.23 330.23 343 329.87C343.78 329.51 344.66 329.33 345.65 329.33C346.64 329.33 347.52 329.51 348.29 329.87C349.06 330.23 349.66 330.73 350.09 331.36C350.52 331.99 350.74 332.71 350.74 333.5C350.74 334.22 350.56 334.88 350.21 335.47C349.86 336.07 349.4 336.52 348.83 336.82ZM345.63 331.72C344.93 331.72 344.35 331.91 343.91 332.29C343.47 332.65 343.25 333.13 343.25 333.71C343.25 334.32 343.48 334.82 343.93 335.2C344.39 335.58 344.96 335.77 345.65 335.77C346.34 335.77 346.91 335.58 347.35 335.2C347.81 334.82 348.03 334.33 348.03 333.74C348.03 333.13 347.81 332.64 347.36 332.27C346.93 331.91 346.35 331.72 345.63 331.72ZM345.63 342.82C346.46 342.82 347.14 342.6 347.67 342.16C348.2 341.72 348.46 341.14 348.46 340.44C348.46 339.72 348.2 339.15 347.67 338.73C347.14 338.3 346.47 338.09 345.65 338.09C344.82 338.09 344.14 338.3 343.6 338.73C343.06 339.15 342.79 339.71 342.79 340.42C342.79 341.14 343.06 341.72 343.6 342.16C344.14 342.6 344.82 342.82 345.63 342.82ZM353.02 332.16C354.29 332.16 355.24 331.94 355.88 331.52C356.53 331.1 356.96 330.46 357.17 329.61L359.6 329.61L359.6 345L356.86 345L356.86 334.22L353.02 334.22L353.02 332.16ZM363.93 341.68C364.51 341.68 365 341.89 365.39 342.29C365.78 342.69 365.97 343.23 365.97 343.9C365.97 344.98 365.62 345.89 364.91 346.62C364.19 347.34 363.28 347.76 362.16 347.86L362.16 347.02C362.87 346.91 363.41 346.66 363.79 346.27C364.18 345.88 364.36 345.44 364.34 344.95C364.19 345.03 363.99 345.07 363.75 345.07C363.29 345.07 362.9 344.93 362.59 344.64C362.27 344.35 362.12 343.96 362.12 343.46C362.12 342.95 362.29 342.52 362.62 342.19C362.96 341.85 363.39 341.68 363.93 341.68ZM374.7 335.5C376.01 335.64 377.05 336.13 377.83 336.97C378.62 337.81 379.02 338.88 379.02 340.17C379.02 341.16 378.77 342.05 378.29 342.82C377.81 343.59 377.15 344.18 376.3 344.6C375.45 345.02 374.5 345.23 373.43 345.23C372.37 345.23 371.42 345.02 370.58 344.6C369.74 344.18 369.09 343.58 368.62 342.8C368.16 342.01 367.94 341.1 367.95 340.08L370.66 340.08C370.66 340.89 370.92 341.55 371.44 342.06C371.97 342.57 372.64 342.82 373.47 342.82C374.29 342.82 374.96 342.57 375.49 342.08C376.02 341.58 376.29 340.92 376.29 340.1C376.29 339.34 376.05 338.73 375.58 338.29C375.12 337.83 374.5 337.57 373.72 337.51C373.44 337.48 372.9 337.46 372.08 337.46L371.19 337.46L371.19 335.61L374.87 331.99L368.87 331.99L368.87 329.61L378.28 329.61L378.28 331.94L374.7 335.5ZM392.48 339.55L392.48 341.86L390.56 341.86L390.56 345L387.9 345L387.9 341.86L380.8 341.86L380.8 339.77L387.15 329.61L390.56 329.61L390.56 339.55L392.48 339.55ZM387.9 339.55L387.9 332.84L383.69 339.55L387.9 339.55ZM400.09 345.27C398.87 345.27 397.81 344.95 396.92 344.31C396.04 343.67 395.36 342.75 394.89 341.57C394.43 340.37 394.2 338.96 394.2 337.32C394.2 334.85 394.72 332.9 395.75 331.48C396.78 330.05 398.23 329.33 400.09 329.33C401.32 329.33 402.38 329.65 403.26 330.29C404.15 330.93 404.83 331.84 405.3 333.05C405.78 334.25 406.02 335.68 406.02 337.32C406.02 338.96 405.78 340.37 405.3 341.57C404.83 342.75 404.15 343.67 403.26 344.31C402.37 344.95 401.31 345.27 400.09 345.27ZM400.11 342.82C401.13 342.82 401.9 342.34 402.42 341.39C402.94 340.44 403.2 339.08 403.2 337.32C403.2 335.57 402.94 334.21 402.42 333.25C401.9 332.29 401.13 331.81 400.11 331.81C399.09 331.81 398.31 332.28 397.78 333.23C397.25 334.18 396.99 335.54 396.99 337.32C396.99 339.07 397.25 340.42 397.78 341.38C398.31 342.34 399.09 342.82 400.11 342.82Z" />
	<path id="Layer" class="shp6" d="M437.65 341.62C437.05 342.34 435.95 342.34 435.35 341.62L427.05 331.66C426.24 330.68 426.93 329.2 428.2 329.2L444.8 329.2C446.07 329.2 446.76 330.68 445.95 331.66L437.65 341.62Z" />
	<path id="Layer" fill-rule="evenodd" class="shp4" d="M132.22 271L132.22 251.13L135.86 251.13L135.86 271L132.22 271ZM147.19 260.03L144.56 260.03L144.56 271L141.09 271L141.09 260.03L138.46 260.03L138.46 257.18L141.09 257.18L141.09 253.55L144.56 253.55L144.56 257.18L147.19 257.18L147.19 260.03ZM163.53 257.18L163.53 271L160.21 271L160.21 269.05C159.74 269.77 159.06 270.35 158.17 270.77C157.29 271.2 156.31 271.41 155.22 271.41C153.94 271.41 152.8 271.11 151.8 270.52C150.81 269.91 150.04 269.06 149.5 267.97C148.95 266.87 148.68 265.6 148.68 264.14C148.68 262.68 148.97 261.39 149.54 260.27C150.12 259.14 150.92 258.27 151.95 257.67C152.99 257.05 154.18 256.74 155.52 256.74C156.57 256.74 157.51 256.93 158.35 257.32C159.2 257.7 159.87 258.24 160.36 258.94L160.64 257.18L163.53 257.18ZM156.08 268.27C157.24 268.27 158.19 267.88 158.91 267.1C159.65 266.31 160.02 265.28 160.02 264.02C160.02 262.76 159.66 261.75 158.94 261C158.24 260.23 157.29 259.84 156.11 259.84C154.93 259.84 153.98 260.23 153.26 261.01C152.56 261.78 152.21 262.79 152.21 264.05C152.21 265.31 152.56 266.33 153.28 267.11C154 267.89 154.93 268.27 156.08 268.27ZM167.31 249.73L170.78 249.73L170.78 271L167.31 271L167.31 249.73ZM188.1 257.18L181.74 273.45C181.22 274.73 180.56 275.74 179.74 276.48C178.92 277.23 177.74 277.6 176.18 277.6C175.33 277.6 174.5 277.5 173.67 277.3L173.71 274.44C174.48 274.58 175.11 274.65 175.59 274.66C176.54 274.66 177.22 274.49 177.63 274.13C178.06 273.78 178.39 273.24 178.63 272.51L179.01 271.56L173.09 257.18L176.83 257.18L180.59 267.31L184.43 257.18L188.1 257.18Z" />
	<path id="Layer" class="shp7" d="M54.34 244.69C54.34 243.39 55.39 242.34 56.69 242.34L100.31 242.34C101.61 242.34 102.66 243.39 102.66 244.69L102.66 274.31C102.66 275.61 101.61 276.66 100.31 276.66L56.69 276.66C55.39 276.66 54.34 275.61 54.34 274.31L54.34 244.69Z" />
	<g id="Clip-Path" clip-path="url(#cp2)">
		<g id="Layer">
			<path id="Layer" class="shp8" d="M86.67 242L103 242L103 277L86.67 277L86.67 242Z" />
			<path id="Layer" fill-rule="evenodd" class="shp9" d="M54 277L70.33 277L70.33 242L54 242L54 277Z" />
		</g>
	</g>
	<path id="Layer" fill-rule="evenodd" class="shp5" d="M342.5 260.82C343.25 261.13 343.84 261.61 344.26 262.29C344.68 262.96 344.89 263.72 344.89 264.58C344.89 265.53 344.64 266.35 344.15 267.04C343.67 267.74 343 268.27 342.16 268.65C341.32 269.02 340.38 269.21 339.32 269.21C338.25 269.21 337.29 269.02 336.43 268.65C335.58 268.27 334.91 267.73 334.43 267.03C333.95 266.33 333.71 265.5 333.71 264.56C333.71 263.69 333.93 262.93 334.36 262.27C334.79 261.61 335.37 261.12 336.09 260.8C335.53 260.46 335.07 260 334.73 259.4C334.39 258.81 334.21 258.17 334.21 257.48C334.21 256.68 334.43 255.97 334.86 255.35C335.3 254.72 335.9 254.23 336.68 253.87C337.45 253.51 338.33 253.33 339.32 253.33C340.32 253.33 341.19 253.51 341.96 253.87C342.73 254.23 343.34 254.73 343.77 255.36C344.19 255.99 344.41 256.71 344.41 257.5C344.41 258.22 344.23 258.88 343.88 259.47C343.53 260.07 343.07 260.52 342.5 260.82ZM339.3 255.72C338.6 255.72 338.02 255.91 337.58 256.29C337.14 256.65 336.92 257.13 336.92 257.71C336.92 258.32 337.15 258.82 337.6 259.2C338.06 259.58 338.64 259.77 339.32 259.77C340.01 259.77 340.58 259.58 341.02 259.2C341.48 258.82 341.7 258.33 341.7 257.74C341.7 257.13 341.48 256.64 341.04 256.27C340.6 255.91 340.02 255.72 339.3 255.72ZM339.3 266.82C340.14 266.82 340.82 266.6 341.34 266.16C341.87 265.72 342.14 265.14 342.14 264.44C342.14 263.72 341.87 263.15 341.34 262.73C340.82 262.3 340.14 262.09 339.32 262.09C338.5 262.09 337.81 262.3 337.27 262.73C336.73 263.15 336.46 263.71 336.46 264.42C336.46 265.14 336.73 265.72 337.27 266.16C337.81 266.6 338.49 266.82 339.3 266.82ZM352.93 258.78C353.95 258.78 354.88 258.99 355.69 259.41C356.52 259.84 357.17 260.44 357.64 261.22C358.12 261.99 358.36 262.88 358.36 263.89C358.36 264.91 358.1 265.84 357.59 266.66C357.09 267.47 356.39 268.1 355.5 268.56C354.61 269.01 353.59 269.23 352.45 269.23C351.32 269.23 350.32 269.01 349.47 268.56C348.63 268.1 347.97 267.48 347.5 266.68C347.04 265.88 346.81 264.98 346.81 263.98C346.81 263.02 347 262.14 347.38 261.35C347.75 260.54 348.26 259.69 348.9 258.78L352.4 253.61L355.4 253.61L351.71 258.9C352.05 258.82 352.45 258.78 352.93 258.78ZM352.56 266.82C353.41 266.82 354.14 266.56 354.72 266.02C355.31 265.49 355.6 264.8 355.6 263.94C355.6 263.09 355.32 262.41 354.75 261.9C354.18 261.38 353.47 261.13 352.63 261.13C351.76 261.13 351.03 261.38 350.44 261.9C349.87 262.41 349.58 263.09 349.58 263.96C349.58 264.83 349.86 265.52 350.42 266.05C350.99 266.56 351.7 266.82 352.56 266.82ZM361.82 265.68C362.4 265.68 362.89 265.89 363.28 266.29C363.67 266.69 363.86 267.23 363.86 267.9C363.86 268.98 363.51 269.89 362.8 270.62C362.09 271.34 361.17 271.76 360.06 271.86L360.06 271.02C360.76 270.91 361.3 270.66 361.68 270.27C362.07 269.88 362.25 269.44 362.23 268.95C362.08 269.03 361.88 269.07 361.64 269.07C361.18 269.07 360.79 268.93 360.48 268.64C360.16 268.35 360.01 267.96 360.01 267.46C360.01 266.95 360.18 266.52 360.51 266.19C360.85 265.85 361.29 265.68 361.82 265.68ZM376.54 263.55L376.54 265.86L374.62 265.86L374.62 269L371.96 269L371.96 265.86L364.86 265.86L364.86 263.77L371.21 253.61L374.62 253.61L374.62 263.55L376.54 263.55ZM371.96 263.55L371.96 256.84L367.75 263.55L371.96 263.55ZM384.22 253.33C385.35 253.33 386.35 253.56 387.21 254.02C388.07 254.48 388.74 255.12 389.2 255.92C389.67 256.72 389.9 257.62 389.9 258.63C389.9 259.3 389.8 259.94 389.59 260.56C389.38 261.18 389.15 261.71 388.88 262.16C388.62 262.59 388.25 263.15 387.79 263.82L384.29 269L381.29 269L384.98 263.74C384.54 263.82 384.13 263.86 383.76 263.87C382.74 263.87 381.82 263.65 381 263.22C380.18 262.79 379.54 262.18 379.06 261.39C378.59 260.61 378.36 259.71 378.36 258.72C378.36 257.68 378.61 256.75 379.11 255.93C379.62 255.11 380.32 254.46 381.21 254.01C382.1 253.56 383.1 253.33 384.22 253.33ZM381.13 258.65C381.13 259.5 381.4 260.19 381.96 260.7C382.52 261.21 383.23 261.46 384.08 261.46C384.96 261.46 385.69 261.21 386.26 260.7C386.84 260.19 387.13 259.5 387.13 258.65C387.13 257.79 386.84 257.1 386.27 256.59C385.7 256.08 384.99 255.83 384.15 255.83C383.28 255.83 382.56 256.09 381.98 256.63C381.41 257.15 381.13 257.82 381.13 258.65ZM400.63 260.82C401.38 261.13 401.96 261.61 402.38 262.29C402.81 262.96 403.02 263.72 403.02 264.58C403.02 265.53 402.77 266.35 402.28 267.04C401.79 267.74 401.13 268.27 400.29 268.65C399.45 269.02 398.5 269.21 397.45 269.21C396.38 269.21 395.41 269.02 394.56 268.65C393.7 268.27 393.04 267.73 392.55 267.03C392.07 266.33 391.84 265.5 391.84 264.56C391.84 263.69 392.05 262.93 392.48 262.27C392.92 261.61 393.5 261.12 394.21 260.8C393.65 260.46 393.2 260 392.86 259.4C392.51 258.81 392.34 258.17 392.34 257.48C392.34 256.68 392.56 255.97 392.98 255.35C393.42 254.72 394.03 254.23 394.8 253.87C395.57 253.51 396.46 253.33 397.45 253.33C398.44 253.33 399.32 253.51 400.09 253.87C400.86 254.23 401.46 254.73 401.89 255.36C402.32 255.99 402.54 256.71 402.54 257.5C402.54 258.22 402.36 258.88 402.01 259.47C401.66 260.07 401.19 260.52 400.63 260.82ZM397.43 255.72C396.72 255.72 396.15 255.91 395.7 256.29C395.27 256.65 395.05 257.13 395.05 257.71C395.05 258.32 395.27 258.82 395.73 259.2C396.19 259.58 396.76 259.77 397.45 259.77C398.14 259.77 398.7 259.58 399.15 259.2C399.6 258.82 399.83 258.33 399.83 257.74C399.83 257.13 399.61 256.64 399.16 256.27C398.72 255.91 398.14 255.72 397.43 255.72ZM397.43 266.82C398.26 266.82 398.94 266.6 399.46 266.16C400 265.72 400.26 265.14 400.26 264.44C400.26 263.72 400 263.15 399.46 262.73C398.94 262.3 398.27 262.09 397.45 262.09C396.62 262.09 395.94 262.3 395.4 262.73C394.86 263.15 394.59 263.71 394.59 264.42C394.59 265.14 394.86 265.72 395.4 266.16C395.94 266.6 396.61 266.82 397.43 266.82Z" />
	<path id="Layer" class="shp10" d="M435.35 254.38C435.95 253.66 437.05 253.66 437.65 254.38L445.95 264.34C446.76 265.32 446.07 266.8 444.8 266.8L428.2 266.8C426.93 266.8 426.24 265.32 427.05 264.34L435.35 254.38Z" />
	<path id="Layer" fill-rule="evenodd" class="shp4" d="M132.07 175.13L135.71 175.13L135.71 187.69C135.71 189.22 136.14 190.34 137.01 191.03C137.88 191.73 138.98 192.08 140.32 192.08C141.75 192.08 142.88 191.71 143.71 190.97C144.55 190.23 144.97 189.13 144.97 187.69L144.97 175.13L148.6 175.13L148.6 187.84C148.6 189.48 148.25 190.86 147.53 192C146.81 193.13 145.83 193.99 144.58 194.56C143.34 195.13 141.92 195.41 140.32 195.41C138.71 195.41 137.28 195.12 136.04 194.55C134.8 193.96 133.82 193.1 133.12 191.97C132.42 190.83 132.07 189.45 132.07 187.84L132.07 175.13ZM152.25 180.77C152.25 179.55 152.54 178.49 153.13 177.58C153.72 176.67 154.56 175.97 155.63 175.47C156.71 174.98 157.95 174.73 159.35 174.73C160.73 174.73 161.96 174.97 163.04 175.46C164.12 175.94 164.97 176.63 165.57 177.52C166.18 178.4 166.48 179.44 166.48 180.62L162.74 180.62C162.72 179.77 162.38 179.09 161.73 178.58C161.08 178.05 160.23 177.79 159.17 177.79C158.2 177.79 157.42 178.03 156.84 178.52C156.26 178.99 155.97 179.61 155.97 180.36C155.97 181.11 156.23 181.66 156.73 182.01C157.25 182.37 157.93 182.64 158.78 182.85L162.03 183.65C163.51 184 164.71 184.65 165.63 185.6C166.55 186.54 167.01 187.75 167.01 189.23C167.01 190.47 166.7 191.56 166.07 192.49C165.45 193.42 164.58 194.14 163.44 194.65C162.31 195.16 160.99 195.41 159.49 195.41C157.26 195.41 155.44 194.87 154.04 193.79C152.65 192.7 151.89 191.22 151.77 189.35L155.5 189.35C155.55 190.28 155.93 191.01 156.67 191.55C157.41 192.07 158.37 192.34 159.55 192.34C160.69 192.34 161.58 192.09 162.23 191.61C162.87 191.13 163.19 190.46 163.19 189.61C163.19 188.88 162.97 188.33 162.51 187.96C162.06 187.59 161.46 187.31 160.73 187.13L157.4 186.33C155.76 185.93 154.5 185.28 153.6 184.36C152.7 183.43 152.25 182.24 152.25 180.77ZM175.38 175.13L179.07 175.13L186.44 195L182.6 195L181 190.47L173.4 190.47L171.72 195L167.96 195L175.38 175.13ZM179.94 187.46L178.67 183.96C178.54 183.63 178.21 182.65 177.67 181.01L177.24 179.77C177.16 180.05 176.97 180.62 176.67 181.48C176.36 182.35 176.06 183.18 175.74 183.96L174.44 187.46L179.94 187.46Z" />
	<path id="Layer" class="shp1" d="M54 168.69C54 167.21 55.21 166 56.69 166L100.31 166C101.79 166 103 167.21 103 168.69L103 198.31C103 199.79 101.79 201 100.31 201L56.69 201C55.21 201 54 199.79 54 198.31L54 168.69Z" />
	<g id="Clip-Path" clip-path="url(#cp3)">
		<g id="Layer">
			<path id="Layer" fill-rule="evenodd" class="shp11" d="M103 168.33L54 168.33L54 166L103 166L103 168.33ZM103 173L54 173L54 170.67L103 170.67L103 173ZM54 175.33L103 175.33L103 177.67L54 177.67L54 175.33ZM103 182.33L54 182.33L54 180L103 180L103 182.33ZM54 184.67L103 184.67L103 187L54 187L54 184.67ZM103 191.67L54 191.67L54 189.33L103 189.33L103 191.67ZM54 194L103 194L103 196.33L54 196.33L54 194ZM103 201L54 201L54 198.67L103 198.67L103 201Z" />
			<path id="Layer" class="shp12" d="M54 166L75 166L75 182.33L54 182.33L54 166Z" />
			<g id="Layer">
				<path id="Layer" fill-rule="evenodd" class="shp13" d="M63.33 169.5C63.33 170.14 62.81 170.67 62.17 170.67C61.52 170.67 61 170.14 61 169.5C61 168.86 61.52 168.33 62.17 168.33C62.81 168.33 63.33 168.86 63.33 169.5ZM58.67 169.5C58.67 170.14 58.14 170.67 57.5 170.67C56.85 170.67 56.33 170.14 56.33 169.5C56.33 168.86 56.85 168.33 57.5 168.33C58.14 168.33 58.67 168.86 58.67 169.5ZM65.67 169.5C65.67 168.86 66.19 168.33 66.83 168.33C67.48 168.33 68 168.86 68 169.5C68 170.14 67.48 170.67 66.83 170.67C66.19 170.67 65.67 170.14 65.67 169.5ZM72.67 169.5C72.67 170.14 72.14 170.67 71.5 170.67C70.85 170.67 70.33 170.14 70.33 169.5C70.33 168.86 70.85 168.33 71.5 168.33C72.14 168.33 72.67 168.86 72.67 169.5ZM58.66 171.83C58.66 171.19 59.19 170.67 59.83 170.67C60.47 170.67 61 171.19 61 171.83C61 172.48 60.47 173 59.83 173C59.19 173 58.66 172.48 58.66 171.83ZM65.66 171.83C65.66 172.48 65.14 173 64.5 173C63.85 173 63.33 172.48 63.33 171.83C63.33 171.19 63.85 170.67 64.5 170.67C65.14 170.67 65.66 171.19 65.66 171.83ZM68 171.83C68 171.19 68.52 170.67 69.16 170.67C69.81 170.67 70.33 171.19 70.33 171.83C70.33 172.48 69.81 173 69.16 173C68.52 173 68 172.48 68 171.83ZM72.67 174.17C72.67 174.81 72.14 175.33 71.5 175.33C70.85 175.33 70.33 174.81 70.33 174.17C70.33 173.52 70.85 173 71.5 173C72.14 173 72.67 173.52 72.67 174.17ZM65.67 174.17C65.67 173.52 66.19 173 66.83 173C67.48 173 68 173.52 68 174.17C68 174.81 67.48 175.33 66.83 175.33C66.19 175.33 65.67 174.81 65.67 174.17ZM63.33 174.17C63.33 174.81 62.81 175.33 62.17 175.33C61.52 175.33 61 174.81 61 174.17C61 173.52 61.52 173 62.17 173C62.81 173 63.33 173.52 63.33 174.17ZM56.33 174.17C56.33 173.52 56.85 173 57.5 173C58.14 173 58.66 173.52 58.66 174.17C58.66 174.81 58.14 175.33 57.5 175.33C56.85 175.33 56.33 174.81 56.33 174.17ZM61 176.5C61 177.14 60.47 177.67 59.83 177.67C59.19 177.67 58.66 177.14 58.66 176.5C58.66 175.86 59.19 175.33 59.83 175.33C60.47 175.33 61 175.86 61 176.5ZM63.33 176.5C63.33 175.86 63.85 175.33 64.5 175.33C65.14 175.33 65.66 175.86 65.66 176.5C65.66 177.14 65.14 177.67 64.5 177.67C63.85 177.67 63.33 177.14 63.33 176.5ZM70.33 176.5C70.33 177.14 69.81 177.67 69.16 177.67C68.52 177.67 68 177.14 68 176.5C68 175.86 68.52 175.33 69.16 175.33C69.81 175.33 70.33 175.86 70.33 176.5ZM70.33 178.83C70.33 178.19 70.85 177.67 71.5 177.67C72.14 177.67 72.67 178.19 72.67 178.83C72.67 179.48 72.14 180 71.5 180C70.85 180 70.33 179.48 70.33 178.83ZM68 178.83C68 179.48 67.48 180 66.83 180C66.19 180 65.67 179.48 65.67 178.83C65.67 178.19 66.19 177.67 66.83 177.67C67.48 177.67 68 178.19 68 178.83ZM61 178.83C61 178.19 61.52 177.67 62.17 177.67C62.81 177.67 63.33 178.19 63.33 178.83C63.33 179.48 62.81 180 62.17 180C61.52 180 61 179.48 61 178.83ZM58.66 178.83C58.66 179.48 58.14 180 57.5 180C56.85 180 56.33 179.48 56.33 178.83C56.33 178.19 56.85 177.67 57.5 177.67C58.14 177.67 58.66 178.19 58.66 178.83Z" />
			</g>
		</g>
	</g>
	<path id="Layer" fill-rule="evenodd" class="shp5" d="M323.48 180.16C324.74 180.16 325.69 179.94 326.34 179.52C326.98 179.1 327.41 178.46 327.63 177.61L330.05 177.61L330.05 193L327.31 193L327.31 182.22L323.48 182.22L323.48 180.16ZM338.64 193.27C337.42 193.27 336.37 192.95 335.48 192.31C334.59 191.67 333.92 190.75 333.45 189.57C332.99 188.37 332.76 186.96 332.76 185.32C332.76 182.85 333.27 180.9 334.31 179.48C335.34 178.05 336.78 177.33 338.64 177.33C339.88 177.33 340.93 177.65 341.82 178.29C342.71 178.93 343.39 179.84 343.86 181.05C344.33 182.25 344.57 183.68 344.57 185.32C344.57 186.96 344.33 188.37 343.86 189.57C343.39 190.75 342.71 191.67 341.82 192.31C340.93 192.95 339.87 193.27 338.64 193.27ZM338.66 190.82C339.69 190.82 340.46 190.34 340.97 189.39C341.5 188.44 341.76 187.08 341.76 185.32C341.76 183.57 341.5 182.21 340.97 181.25C340.46 180.29 339.69 179.81 338.66 179.81C337.64 179.81 336.86 180.28 336.33 181.23C335.81 182.18 335.55 183.54 335.55 185.32C335.55 187.07 335.81 188.42 336.33 189.38C336.86 190.34 337.64 190.82 338.66 190.82ZM352.35 193.27C351.13 193.27 350.08 192.95 349.19 192.31C348.31 191.67 347.63 190.75 347.16 189.57C346.7 188.37 346.47 186.96 346.47 185.32C346.47 182.85 346.98 180.9 348.02 179.48C349.05 178.05 350.49 177.33 352.35 177.33C353.59 177.33 354.64 177.65 355.53 178.29C356.42 178.93 357.1 179.84 357.57 181.05C358.04 182.25 358.28 183.68 358.28 185.32C358.28 186.96 358.04 188.37 357.57 189.57C357.1 190.75 356.42 191.67 355.53 192.31C354.64 192.95 353.58 193.27 352.35 193.27ZM352.38 190.82C353.4 190.82 354.17 190.34 354.68 189.39C355.21 188.44 355.47 187.08 355.47 185.32C355.47 183.57 355.21 182.21 354.68 181.25C354.17 180.29 353.4 179.81 352.38 179.81C351.35 179.81 350.57 180.28 350.04 181.23C349.52 182.18 349.26 183.54 349.26 185.32C349.26 187.07 349.52 188.42 350.04 189.38C350.57 190.34 351.35 190.82 352.38 190.82ZM361.01 189.68C361.59 189.68 362.07 189.89 362.46 190.29C362.86 190.69 363.05 191.23 363.05 191.9C363.05 192.98 362.69 193.89 361.98 194.62C361.27 195.34 360.36 195.76 359.24 195.86L359.24 195.02C359.94 194.91 360.49 194.66 360.87 194.27C361.25 193.88 361.44 193.44 361.42 192.95C361.27 193.03 361.07 193.07 360.82 193.07C360.36 193.07 359.98 192.93 359.66 192.64C359.35 192.35 359.19 191.96 359.19 191.46C359.19 190.95 359.36 190.52 359.7 190.19C360.04 189.85 360.47 189.68 361.01 189.68ZM371.78 183.5C373.09 183.64 374.13 184.13 374.91 184.97C375.7 185.81 376.09 186.88 376.09 188.17C376.09 189.16 375.85 190.05 375.37 190.82C374.89 191.59 374.23 192.18 373.38 192.6C372.53 193.02 371.57 193.23 370.5 193.23C369.45 193.23 368.5 193.02 367.66 192.6C366.82 192.18 366.17 191.58 365.7 190.8C365.24 190.01 365.02 189.1 365.03 188.08L367.74 188.08C367.74 188.89 368 189.55 368.52 190.06C369.05 190.57 369.72 190.82 370.55 190.82C371.36 190.82 372.04 190.57 372.57 190.08C373.1 189.58 373.36 188.92 373.36 188.1C373.36 187.34 373.13 186.73 372.66 186.29C372.2 185.83 371.58 185.57 370.8 185.51C370.52 185.48 369.98 185.46 369.16 185.46L368.27 185.46L368.27 183.61L371.94 179.99L365.94 179.99L365.94 177.61L375.36 177.61L375.36 179.94L371.78 183.5ZM384.04 177.33C385.17 177.33 386.17 177.56 387.03 178.02C387.89 178.48 388.56 179.12 389.02 179.92C389.49 180.72 389.72 181.62 389.72 182.63C389.72 183.3 389.62 183.94 389.41 184.56C389.2 185.18 388.97 185.71 388.7 186.16C388.44 186.59 388.07 187.15 387.61 187.82L384.11 193L381.11 193L384.8 187.74C384.36 187.82 383.95 187.86 383.58 187.87C382.56 187.87 381.64 187.65 380.82 187.22C380 186.79 379.36 186.18 378.88 185.39C378.41 184.61 378.18 183.71 378.18 182.72C378.18 181.68 378.43 180.75 378.93 179.93C379.44 179.11 380.14 178.46 381.03 178.01C381.92 177.56 382.92 177.33 384.04 177.33ZM380.94 182.65C380.94 183.5 381.22 184.19 381.78 184.7C382.34 185.21 383.05 185.46 383.9 185.46C384.78 185.46 385.51 185.21 386.08 184.7C386.66 184.19 386.94 183.5 386.94 182.65C386.94 181.79 386.66 181.1 386.09 180.59C385.52 180.08 384.81 179.83 383.97 179.83C383.1 179.83 382.38 180.09 381.8 180.63C381.23 181.15 380.94 181.82 380.94 182.65ZM396.29 190.53L401.98 190.53L401.98 193L392.25 193L392.25 191.03L397.73 185.1C398.19 184.61 398.56 184.13 398.84 183.65C399.12 183.16 399.26 182.63 399.26 182.06C399.26 181.38 399.04 180.84 398.61 180.43C398.18 180.01 397.61 179.81 396.91 179.81C396.09 179.81 395.46 180.06 395 180.58C394.54 181.09 394.36 181.72 394.43 182.49L391.75 182.49C391.69 181.5 391.88 180.61 392.31 179.83C392.76 179.04 393.39 178.43 394.22 177.99C395.06 177.55 396 177.33 397.06 177.33C398.04 177.33 398.9 177.52 399.65 177.89C400.4 178.27 400.98 178.8 401.39 179.49C401.82 180.18 402.03 180.97 402.03 181.87C402.03 182.84 401.82 183.68 401.42 184.38C401.02 185.07 400.48 185.8 399.81 186.57L396.29 190.53Z" />
	<path id="Layer" class="shp10" d="M434.35 178.38C434.95 177.66 436.05 177.66 436.65 178.38L444.95 188.34C445.76 189.32 445.07 190.8 443.8 190.8L427.2 190.8C425.93 190.8 425.24 189.32 426.05 188.34L434.35 178.38Z" />
	<path id="Layer" fill-rule="evenodd" class="shp4" d="M131.57 408.77C131.57 407.55 131.87 406.49 132.45 405.58C133.05 404.67 133.88 403.97 134.95 403.47C136.03 402.98 137.27 402.73 138.67 402.73C140.06 402.73 141.29 402.97 142.37 403.46C143.45 403.94 144.29 404.63 144.9 405.52C145.5 406.4 145.8 407.44 145.8 408.62L142.06 408.62C142.04 407.77 141.71 407.09 141.05 406.58C140.4 406.05 139.55 405.79 138.49 405.79C137.52 405.79 136.75 406.03 136.16 406.52C135.59 406.99 135.3 407.61 135.3 408.36C135.3 409.11 135.55 409.66 136.06 410.01C136.57 410.37 137.25 410.64 138.1 410.85L141.35 411.65C142.84 412 144.04 412.65 144.96 413.6C145.87 414.54 146.33 415.75 146.33 417.23C146.33 418.47 146.02 419.56 145.39 420.49C144.78 421.42 143.9 422.14 142.76 422.65C141.63 423.16 140.31 423.41 138.81 423.41C136.58 423.41 134.76 422.87 133.36 421.79C131.97 420.7 131.21 419.22 131.09 417.35L134.83 417.35C134.87 418.28 135.26 419.01 135.99 419.55C136.73 420.07 137.69 420.34 138.87 420.34C140.01 420.34 140.9 420.09 141.55 419.61C142.19 419.13 142.52 418.46 142.52 417.61C142.52 416.88 142.29 416.33 141.84 415.96C141.38 415.59 140.79 415.31 140.05 415.13L136.72 414.33C135.09 413.93 133.82 413.28 132.92 412.36C132.02 411.43 131.57 410.24 131.57 408.77ZM157.28 408.74C158.58 408.74 159.74 409.05 160.76 409.67C161.78 410.27 162.57 411.13 163.15 412.24C163.74 413.34 164.03 414.61 164.03 416.05C164.03 417.5 163.74 418.78 163.15 419.9C162.57 421.02 161.78 421.88 160.76 422.5C159.74 423.11 158.56 423.41 157.23 423.41C156.24 423.41 155.34 423.24 154.54 422.91C153.73 422.58 153.09 422.1 152.61 421.49L152.61 429.36L149.18 429.36L149.18 409.18L152.02 409.18L152.28 411.16C152.78 410.42 153.46 409.83 154.34 409.39C155.22 408.96 156.2 408.74 157.28 408.74ZM156.58 420.27C157.76 420.27 158.7 419.89 159.41 419.11C160.13 418.33 160.49 417.32 160.49 416.08C160.49 414.82 160.13 413.81 159.41 413.04C158.7 412.26 157.77 411.88 156.61 411.88C155.45 411.88 154.51 412.26 153.78 413.04C153.06 413.81 152.71 414.83 152.71 416.11C152.71 417.37 153.06 418.38 153.78 419.14C154.5 419.9 155.43 420.27 156.58 420.27ZM181.12 409.18L181.12 423L177.8 423L177.8 421.05C177.33 421.77 176.65 422.35 175.76 422.77C174.88 423.2 173.9 423.41 172.81 423.41C171.52 423.41 170.38 423.11 169.39 422.52C168.4 421.91 167.63 421.06 167.08 419.97C166.54 418.87 166.27 417.6 166.27 416.14C166.27 414.68 166.56 413.39 167.13 412.27C167.71 411.14 168.51 410.27 169.54 409.67C170.58 409.05 171.77 408.74 173.11 408.74C174.16 408.74 175.1 408.93 175.94 409.32C176.79 409.7 177.46 410.24 177.95 410.94L178.23 409.18L181.12 409.18ZM173.67 420.27C174.83 420.27 175.77 419.88 176.5 419.1C177.24 418.31 177.61 417.28 177.61 416.02C177.61 414.76 177.25 413.75 176.53 413C175.82 412.23 174.88 411.84 173.7 411.84C172.52 411.84 171.57 412.23 170.85 413.01C170.15 413.78 169.79 414.79 169.79 416.05C169.79 417.31 170.15 418.33 170.87 419.11C171.59 419.89 172.52 420.27 173.67 420.27ZM186.67 406.47C185.96 406.47 185.38 406.25 184.93 405.81C184.48 405.36 184.25 404.81 184.25 404.15C184.25 403.49 184.48 402.94 184.93 402.5C185.38 402.07 185.96 401.85 186.67 401.85C187.38 401.85 187.95 402.07 188.38 402.5C188.83 402.94 189.05 403.49 189.05 404.15C189.05 404.79 188.82 405.33 188.37 405.79C187.91 406.24 187.35 406.47 186.67 406.47ZM184.93 409.18L188.4 409.18L188.4 423L184.93 423L184.93 409.18ZM199.83 408.74C201.43 408.74 202.7 409.25 203.63 410.27C204.56 411.28 205.03 412.67 205.03 414.45L205.03 423L201.55 423L201.55 415.25C201.55 413 200.63 411.88 198.8 411.88C197.81 411.88 197.04 412.16 196.5 412.74C195.96 413.31 195.69 414.09 195.69 415.07L195.69 423L192.26 423L192.26 409.18L195.13 409.18L195.39 410.85C195.82 410.21 196.44 409.7 197.24 409.32C198.04 408.93 198.9 408.74 199.83 408.74Z" />
	<path id="Layer" class="shp1" d="M54 396.65C54 395.19 55.19 394 56.65 394L100.35 394C101.81 394 103 395.19 103 396.65L103 426.35C103 427.81 101.81 429 100.35 429L56.65 429C55.19 429 54 427.81 54 426.35L54 396.65Z" />
	<g id="Clip-Path" clip-path="url(#cp4)">
		<g id="Layer">
			<path id="Layer" fill-rule="evenodd" class="shp14" d="M54 403.33L103 403.33L103 394L54 394L54 403.33Z" />
			<path id="Layer" fill-rule="evenodd" class="shp14" d="M54 429L103 429L103 419.67L54 419.67L54 429Z" />
			<path id="Layer" fill-rule="evenodd" class="shp15" d="M54 419.67L103 419.67L103 403.33L54 403.33L54 419.67Z" />
			<path id="Layer" fill-rule="evenodd" class="shp16" d="M66.84 410.33L69.17 410.33L69.17 411.5L66.84 411.5L66.84 410.33Z" />
			<path id="Layer" class="shp17" d="M64.44 410.09C64.41 409.83 64.62 409.61 64.88 409.61L68.79 409.61C69.05 409.61 69.25 409.83 69.23 410.09L68.86 414.51C68.81 415.2 68.23 415.73 67.54 415.73L66.13 415.73C65.44 415.73 64.86 415.2 64.81 414.51L64.44 410.09Z" />
			<path id="Layer" fill-rule="evenodd" class="shp18" d="M64.5 411.5L69.17 411.5L69.17 412.67L68 412.67L66.83 415L65.67 412.67L64.5 412.67L64.5 411.5Z" />
			<path id="Layer" class="shp18" d="M61 408.88C61 408.4 61.39 408 61.88 408L62.45 408C62.94 408 63.33 408.4 63.33 408.88L63.33 415.28C63.33 415.77 62.94 416.17 62.45 416.17L61.88 416.17C61.39 416.17 61 415.77 61 415.28L61 408.88Z" />
			<path id="Layer" class="shp18" d="M70.33 408.88C70.33 408.4 70.73 408 71.22 408L71.78 408C72.27 408 72.67 408.4 72.67 408.88L72.67 415.28C72.67 415.77 72.27 416.17 71.78 416.17L71.22 416.17C70.73 416.17 70.33 415.77 70.33 415.28L70.33 408.88Z" />
			<path id="Layer" class="shp18" d="M64.5 407.43C64.5 406.46 65.29 405.67 66.26 405.67L67.4 405.67C68.38 405.67 69.17 406.46 69.17 407.43L69.17 407.56C69.17 407.8 68.97 408 68.72 408L64.94 408C64.7 408 64.5 407.8 64.5 407.56L64.5 407.43Z" />
		</g>
	</g>
	<path id="Layer" fill-rule="evenodd" class="shp5" d="M337.38 410.78C338.4 410.78 339.32 410.99 340.14 411.41C340.97 411.84 341.62 412.44 342.09 413.22C342.56 413.99 342.8 414.88 342.8 415.89C342.8 416.91 342.55 417.84 342.04 418.66C341.54 419.47 340.84 420.1 339.94 420.56C339.05 421.01 338.04 421.23 336.89 421.23C335.76 421.23 334.77 421.01 333.92 420.56C333.07 420.1 332.42 419.48 331.95 418.68C331.49 417.88 331.26 416.98 331.26 415.98C331.26 415.02 331.44 414.14 331.82 413.35C332.19 412.54 332.7 411.69 333.34 410.78L336.85 405.61L339.85 405.61L336.16 410.9C336.49 410.82 336.9 410.78 337.38 410.78ZM337 418.82C337.86 418.82 338.58 418.56 339.17 418.02C339.75 417.49 340.05 416.8 340.05 415.94C340.05 415.09 339.76 414.41 339.19 413.9C338.62 413.38 337.91 413.13 337.07 413.13C336.2 413.13 335.48 413.38 334.89 413.9C334.31 414.41 334.02 415.09 334.02 415.96C334.02 416.83 334.31 417.52 334.87 418.05C335.44 418.56 336.15 418.82 337 418.82ZM356.23 415.55L356.23 417.86L354.31 417.86L354.31 421L351.65 421L351.65 417.86L344.55 417.86L344.55 415.77L350.9 405.61L354.31 405.61L354.31 415.55L356.23 415.55ZM351.65 415.55L351.65 408.84L347.44 415.55L351.65 415.55ZM359.58 417.68C360.16 417.68 360.64 417.89 361.04 418.29C361.43 418.69 361.62 419.23 361.62 419.9C361.62 420.98 361.27 421.89 360.56 422.62C359.84 423.34 358.93 423.76 357.81 423.86L357.81 423.02C358.52 422.91 359.06 422.66 359.44 422.27C359.82 421.88 360.01 421.44 359.99 420.95C359.84 421.03 359.64 421.07 359.39 421.07C358.93 421.07 358.55 420.93 358.23 420.64C357.92 420.35 357.77 419.96 357.77 419.46C357.77 418.95 357.93 418.52 358.27 418.19C358.61 417.85 359.04 417.68 359.58 417.68ZM369.02 421.27C367.8 421.27 366.74 420.95 365.85 420.31C364.97 419.67 364.29 418.75 363.82 417.57C363.36 416.37 363.13 414.96 363.13 413.32C363.13 410.85 363.65 408.9 364.68 407.48C365.71 406.05 367.16 405.33 369.02 405.33C370.25 405.33 371.31 405.65 372.19 406.29C373.08 406.93 373.76 407.84 374.23 409.05C374.71 410.25 374.94 411.68 374.94 413.32C374.94 414.96 374.71 416.37 374.23 417.57C373.76 418.75 373.08 419.67 372.19 420.31C371.3 420.95 370.24 421.27 369.02 421.27ZM369.04 418.82C370.06 418.82 370.83 418.34 371.35 417.39C371.87 416.44 372.13 415.08 372.13 413.32C372.13 411.57 371.87 410.21 371.35 409.25C370.83 408.29 370.06 407.81 369.04 407.81C368.02 407.81 367.24 408.28 366.71 409.23C366.18 410.18 365.92 411.54 365.92 413.32C365.92 415.07 366.18 416.42 366.71 417.38C367.24 418.34 368.02 418.82 369.04 418.82ZM382.98 410.88C383.99 410.88 384.89 411.09 385.68 411.53C386.48 411.97 387.1 412.58 387.54 413.36C388 414.13 388.22 415.01 388.22 415.98C388.22 417.01 387.97 417.92 387.46 418.71C386.96 419.5 386.28 420.12 385.41 420.56C384.55 420.99 383.58 421.21 382.5 421.21C381.43 421.21 380.48 421 379.63 420.57C378.8 420.14 378.14 419.54 377.66 418.76C377.19 417.98 376.96 417.09 376.96 416.08L379.68 416.08C379.68 416.88 379.94 417.53 380.46 418.05C381 418.56 381.67 418.82 382.48 418.82C383.33 418.82 384.04 418.56 384.59 418.02C385.15 417.49 385.43 416.81 385.43 415.96C385.43 415.13 385.16 414.46 384.63 413.93C384.09 413.41 383.39 413.15 382.5 413.15C381.96 413.15 381.45 413.26 380.98 413.48C380.51 413.69 380.15 413.99 379.89 414.36L377.28 414.04L379.27 405.61L387.31 405.61L387.31 407.99L381.33 407.99L380.44 411.47C381.13 411.07 381.98 410.88 382.98 410.88ZM396.25 405.33C397.38 405.33 398.38 405.56 399.24 406.02C400.11 406.48 400.77 407.12 401.23 407.92C401.7 408.72 401.93 409.62 401.93 410.63C401.93 411.3 401.83 411.94 401.62 412.56C401.41 413.18 401.18 413.71 400.91 414.16C400.65 414.59 400.29 415.15 399.82 415.82L396.32 421L393.32 421L397.01 415.74C396.57 415.82 396.16 415.86 395.79 415.87C394.77 415.87 393.85 415.65 393.03 415.22C392.21 414.79 391.57 414.18 391.09 413.39C390.63 412.61 390.39 411.71 390.39 410.72C390.39 409.68 390.64 408.75 391.14 407.93C391.65 407.11 392.35 406.46 393.24 406.01C394.13 405.56 395.13 405.33 396.25 405.33ZM393.16 410.65C393.16 411.5 393.43 412.19 393.99 412.7C394.55 413.21 395.26 413.46 396.11 413.46C396.99 413.46 397.72 413.21 398.29 412.7C398.87 412.19 399.16 411.5 399.16 410.65C399.16 409.79 398.87 409.1 398.3 408.59C397.73 408.08 397.02 407.83 396.18 407.83C395.31 407.83 394.59 408.09 394.01 408.63C393.44 409.15 393.16 409.82 393.16 410.65Z" />
	<path id="Layer" class="shp10" d="M434.35 406.38C434.95 405.66 436.05 405.66 436.65 406.38L444.95 416.34C445.76 417.32 445.07 418.8 443.8 418.8L427.2 418.8C425.93 418.8 425.24 417.32 426.05 416.34L434.35 406.38Z" />
	<path id="Layer" fill-rule="evenodd" class="shp4" d="M151.15 488.21L151.15 490.1C151.15 491.94 150.72 493.56 149.88 494.97C149.03 496.38 147.85 497.47 146.33 498.24C144.83 499.02 143.11 499.41 141.19 499.41C139.18 499.41 137.42 498.99 135.9 498.14C134.39 497.29 133.21 496.1 132.38 494.57C131.54 493.02 131.12 491.24 131.12 489.21C131.12 487.14 131.55 485.32 132.41 483.74C133.26 482.16 134.47 480.93 136.01 480.05C137.56 479.17 139.34 478.73 141.35 478.73C142.97 478.73 144.43 479.01 145.74 479.58C147.06 480.14 148.16 480.94 149.03 481.97C149.9 482.99 150.47 484.16 150.74 485.48L146.86 485.48C146.47 484.41 145.77 483.58 144.77 482.99C143.77 482.38 142.6 482.08 141.25 482.08C139.28 482.08 137.72 482.72 136.58 484.01C135.44 485.31 134.87 487.02 134.87 489.15C134.87 491.27 135.45 492.96 136.6 494.19C137.76 495.41 139.32 496.02 141.28 496.02C142.91 496.02 144.26 495.61 145.33 494.79C146.41 493.97 147.06 492.8 147.27 491.31L140.97 491.31L140.97 488.21L151.15 488.21ZM167.31 494.69C167.01 496.1 166.24 497.24 165 498.11C163.75 498.98 162.28 499.41 160.56 499.41C159.14 499.41 157.88 499.1 156.79 498.49C155.71 497.86 154.87 496.99 154.26 495.88C153.67 494.76 153.37 493.48 153.37 492.02C153.37 490.56 153.67 489.28 154.28 488.19C154.9 487.09 155.74 486.25 156.81 485.65C157.89 485.04 159.11 484.74 160.47 484.74C161.81 484.74 163 485.03 164.03 485.6C165.07 486.17 165.87 486.95 166.43 487.93C167 488.92 167.28 490.06 167.28 491.34C167.28 492.03 167.23 492.6 167.13 493.05L156.78 493.05C156.82 494.1 157.18 494.95 157.87 495.59C158.56 496.23 159.46 496.55 160.56 496.55C161.39 496.55 162.1 496.39 162.69 496.06C163.3 495.73 163.71 495.27 163.94 494.69L167.31 494.69ZM163.75 490.72C163.74 489.75 163.41 488.99 162.79 488.43C162.17 487.87 161.37 487.59 160.38 487.59C159.37 487.59 158.54 487.88 157.88 488.45C157.23 489.01 156.88 489.77 156.84 490.72L163.75 490.72ZM177.01 485.04C177.47 485.05 177.9 485.1 178.32 485.18L178.32 488.15C177.94 488.11 177.67 488.09 177.5 488.09C176.26 488.09 175.3 488.43 174.62 489.13C173.96 489.82 173.62 490.79 173.62 492.05L173.62 499L170.16 499L170.16 485.18L173.29 485.18L173.59 487.16C173.8 486.48 174.2 485.95 174.82 485.59C175.44 485.23 176.17 485.04 177.01 485.04ZM197.02 484.74C198.52 484.74 199.73 485.2 200.64 486.12C201.56 487.04 202.02 488.29 202.02 489.89L202.02 499L198.58 499L198.58 490.72C198.58 489.73 198.35 488.99 197.87 488.5C197.41 488 196.79 487.75 196.01 487.75C195.1 487.75 194.39 488.05 193.88 488.63C193.37 489.22 193.12 489.96 193.12 490.87L193.12 499L189.71 499L189.71 490.72C189.71 489.79 189.48 489.07 189 488.54C188.53 488.02 187.88 487.75 187.05 487.75C186.2 487.75 185.52 488.05 185.01 488.65C184.5 489.24 184.25 489.98 184.25 490.87L184.25 499L180.78 499L180.78 485.18L183.95 485.18L184.13 486.66C184.54 486.07 185.1 485.6 185.81 485.26C186.53 484.91 187.29 484.74 188.1 484.74C189.1 484.74 190.01 484.97 190.8 485.44C191.6 485.9 192.18 486.54 192.53 487.35C192.94 486.52 193.54 485.88 194.32 485.42C195.09 484.97 196 484.74 197.02 484.74ZM219.75 485.18L219.75 499L216.43 499L216.43 497.05C215.96 497.77 215.27 498.35 214.39 498.77C213.51 499.2 212.52 499.41 211.44 499.41C210.15 499.41 209.01 499.11 208.01 498.52C207.03 497.91 206.26 497.06 205.71 495.97C205.17 494.87 204.9 493.6 204.9 492.14C204.9 490.68 205.18 489.39 205.76 488.27C206.33 487.14 207.14 486.27 208.17 485.66C209.2 485.05 210.4 484.74 211.74 484.74C212.79 484.74 213.73 484.93 214.57 485.32C215.42 485.7 216.09 486.24 216.58 486.94L216.85 485.18L219.75 485.18ZM212.3 496.27C213.46 496.27 214.4 495.88 215.13 495.1C215.87 494.31 216.23 493.28 216.23 492.02C216.23 490.76 215.88 489.75 215.16 489C214.45 488.23 213.51 487.84 212.33 487.84C211.15 487.84 210.2 488.23 209.48 489.01C208.78 489.78 208.42 490.79 208.42 492.05C208.42 493.31 208.78 494.33 209.5 495.11C210.21 495.89 211.15 496.27 212.3 496.27ZM231.1 484.74C232.7 484.74 233.97 485.25 234.9 486.27C235.84 487.28 236.31 488.67 236.31 490.45L236.31 499L232.82 499L232.82 491.25C232.82 489 231.9 487.88 230.07 487.88C229.08 487.88 228.31 488.16 227.77 488.74C227.23 489.31 226.97 490.09 226.97 491.07L226.97 499L223.53 499L223.53 485.18L226.41 485.18L226.66 486.85C227.1 486.21 227.71 485.7 228.51 485.32C229.31 484.93 230.17 484.74 231.1 484.74ZM253.15 485.18L246.8 501.45C246.28 502.73 245.61 503.74 244.8 504.48C243.98 505.23 242.79 505.6 241.24 505.6C240.39 505.6 239.56 505.5 238.73 505.3L238.77 502.44C239.54 502.58 240.17 502.65 240.65 502.66C241.6 502.66 242.28 502.49 242.69 502.13C243.12 501.78 243.45 501.24 243.69 500.51L244.07 499.56L238.15 485.18L241.89 485.18L245.64 495.31L249.49 485.18L253.15 485.18Z" />
	<path id="Layer" class="shp1" d="M54 472.69C54 471.21 55.21 470 56.69 470L100.31 470C101.79 470 103 471.21 103 472.69L103 502.31C103 503.79 101.79 505 100.31 505L56.69 505C55.21 505 54 503.79 54 502.31L54 472.69Z" />
	<g id="Clip-Path" clip-path="url(#cp5)">
		<g id="Layer">
			<path id="Layer" fill-rule="evenodd" class="shp19" d="M54 481.67L103 481.67L103 470L54 470L54 481.67Z" />
			<g id="Layer">
				<path id="Layer" fill-rule="evenodd" class="shp20" d="M54 493.33L103 493.33L103 481.67L54 481.67L54 493.33Z" />
			</g>
			<g id="Layer">
				<path id="Layer" fill-rule="evenodd" class="shp21" d="M54 505L103 505L103 493.33L54 493.33L54 505Z" />
			</g>
		</g>
	</g>
	<path id="Layer" fill-rule="evenodd" class="shp5" d="M344.99 486.88C346 486.88 346.9 487.09 347.69 487.53C348.48 487.97 349.11 488.58 349.55 489.36C350 490.13 350.23 491.01 350.23 491.98C350.23 493.01 349.98 493.92 349.47 494.72C348.97 495.5 348.29 496.12 347.42 496.55C346.56 496.99 345.59 497.21 344.51 497.21C343.44 497.21 342.48 497 341.64 496.57C340.81 496.14 340.15 495.53 339.67 494.76C339.2 493.98 338.97 493.09 338.97 492.08L341.69 492.08C341.69 492.88 341.95 493.53 342.47 494.05C343 494.56 343.68 494.82 344.49 494.82C345.34 494.82 346.04 494.55 346.6 494.02C347.16 493.49 347.44 492.8 347.44 491.96C347.44 491.13 347.17 490.46 346.63 489.93C346.1 489.41 345.39 489.15 344.51 489.15C343.96 489.15 343.46 489.26 342.99 489.48C342.52 489.7 342.16 489.99 341.9 490.36L339.29 490.04L341.28 481.61L349.32 481.61L349.32 483.99L343.34 483.99L342.45 487.47C343.14 487.07 343.98 486.88 344.99 486.88ZM358.12 497.27C356.9 497.27 355.84 496.95 354.95 496.31C354.07 495.67 353.39 494.75 352.93 493.57C352.46 492.37 352.23 490.96 352.23 489.32C352.23 486.85 352.75 484.9 353.78 483.48C354.81 482.05 356.26 481.33 358.12 481.33C359.35 481.33 360.41 481.65 361.29 482.29C362.18 482.93 362.86 483.84 363.33 485.05C363.81 486.25 364.05 487.68 364.05 489.32C364.05 490.96 363.81 492.37 363.33 493.57C362.86 494.75 362.18 495.67 361.29 496.31C360.4 496.95 359.34 497.27 358.12 497.27ZM358.14 494.82C359.16 494.82 359.93 494.34 360.45 493.39C360.97 492.44 361.23 491.08 361.23 489.32C361.23 487.57 360.97 486.21 360.45 485.25C359.93 484.28 359.16 483.8 358.14 483.8C357.12 483.8 356.34 484.28 355.81 485.23C355.29 486.18 355.02 487.54 355.02 489.32C355.02 491.07 355.29 492.42 355.81 493.38C356.34 494.34 357.12 494.82 358.14 494.82ZM366.78 493.68C367.36 493.68 367.84 493.89 368.23 494.29C368.62 494.69 368.82 495.23 368.82 495.9C368.82 496.98 368.46 497.89 367.75 498.62C367.04 499.34 366.13 499.76 365.01 499.86L365.01 499.02C365.71 498.91 366.25 498.66 366.64 498.27C367.02 497.88 367.2 497.45 367.19 496.95C367.03 497.03 366.83 497.07 366.59 497.07C366.13 497.07 365.74 496.93 365.43 496.64C365.12 496.35 364.96 495.96 364.96 495.47C364.96 494.95 365.13 494.52 365.46 494.19C365.8 493.85 366.24 493.68 366.78 493.68ZM379.44 488.82C380.19 489.13 380.78 489.61 381.2 490.28C381.63 490.96 381.84 491.72 381.84 492.58C381.84 493.53 381.59 494.35 381.1 495.04C380.61 495.74 379.95 496.27 379.11 496.65C378.27 497.02 377.32 497.21 376.27 497.21C375.2 497.21 374.23 497.02 373.38 496.65C372.52 496.27 371.86 495.73 371.37 495.03C370.89 494.33 370.66 493.5 370.66 492.56C370.66 491.69 370.87 490.93 371.3 490.27C371.74 489.61 372.32 489.12 373.04 488.8C372.47 488.46 372.02 488 371.68 487.4C371.33 486.81 371.16 486.17 371.16 485.48C371.16 484.68 371.38 483.97 371.81 483.35C372.24 482.72 372.85 482.23 373.62 481.87C374.39 481.51 375.28 481.33 376.27 481.33C377.26 481.33 378.14 481.51 378.91 481.87C379.68 482.23 380.28 482.73 380.71 483.36C381.14 483.99 381.36 484.71 381.36 485.5C381.36 486.22 381.18 486.88 380.83 487.47C380.48 488.07 380.02 488.52 379.44 488.82ZM376.25 483.72C375.54 483.72 374.97 483.91 374.52 484.28C374.09 484.65 373.87 485.13 373.87 485.72C373.87 486.32 374.09 486.82 374.55 487.2C375.01 487.58 375.58 487.77 376.27 487.77C376.96 487.77 377.52 487.58 377.97 487.2C378.42 486.82 378.65 486.33 378.65 485.74C378.65 485.13 378.43 484.64 377.98 484.27C377.54 483.91 376.96 483.72 376.25 483.72ZM376.25 494.82C377.08 494.82 377.76 494.6 378.29 494.16C378.82 493.72 379.08 493.14 379.08 492.44C379.08 491.72 378.82 491.15 378.29 490.73C377.76 490.3 377.09 490.09 376.27 490.09C375.44 490.09 374.76 490.3 374.22 490.73C373.68 491.15 373.41 491.72 373.41 492.42C373.41 493.14 373.68 493.72 374.22 494.16C374.76 494.6 375.43 494.82 376.25 494.82ZM393.4 481.61L393.4 483.76L387.33 497L384.43 497L390.36 483.99L383.3 483.99L383.3 481.61L393.4 481.61ZM394.7 484.16C395.97 484.16 396.92 483.95 397.56 483.52C398.21 483.1 398.64 482.47 398.85 481.61L401.28 481.61L401.28 497L398.54 497L398.54 486.22L394.7 486.22L394.7 484.16Z" />
	<path id="Layer" class="shp10" d="M434.35 482.38C434.95 481.66 436.05 481.66 436.65 482.38L444.95 492.34C445.76 493.32 445.07 494.8 443.8 494.8L427.2 494.8C425.93 494.8 425.24 493.32 426.05 492.34L434.35 482.38Z" />
	<path id="Layer" fill-rule="evenodd" class="shp4" d="M132.22 575L132.22 555.13L135.86 555.13L135.86 575L132.22 575ZM146.68 561.04C147.13 561.05 147.57 561.1 147.98 561.18L147.98 564.15C147.61 564.11 147.34 564.09 147.16 564.09C145.92 564.09 144.97 564.43 144.29 565.13C143.62 565.82 143.29 566.79 143.29 568.05L143.29 575L139.82 575L139.82 561.18L142.96 561.18L143.26 563.16C143.46 562.48 143.87 561.95 144.49 561.59C145.1 561.23 145.83 561.04 146.68 561.04ZM164.31 561.18L164.31 575L161 575L161 573.05C160.53 573.77 159.84 574.35 158.96 574.77C158.08 575.2 157.09 575.41 156 575.41C154.72 575.41 153.58 575.11 152.58 574.52C151.59 573.91 150.83 573.06 150.28 571.97C149.74 570.87 149.47 569.6 149.47 568.14C149.47 566.68 149.75 565.39 150.33 564.27C150.9 563.14 151.71 562.27 152.74 561.66C153.78 561.05 154.97 560.74 156.31 560.74C157.36 560.74 158.3 560.93 159.14 561.32C159.99 561.7 160.66 562.24 161.15 562.94L161.42 561.18L164.31 561.18ZM156.87 572.27C158.03 572.27 158.97 571.88 159.7 571.1C160.44 570.31 160.8 569.28 160.8 568.02C160.8 566.76 160.44 565.75 159.73 565C159.02 564.23 158.08 563.84 156.9 563.84C155.72 563.84 154.77 564.23 154.05 565.01C153.35 565.78 152.99 566.79 152.99 568.05C152.99 569.31 153.35 570.33 154.07 571.11C154.78 571.89 155.72 572.27 156.87 572.27ZM175.67 560.74C177.27 560.74 178.54 561.25 179.47 562.27C180.4 563.28 180.88 564.67 180.88 566.45L180.88 575L177.39 575L177.39 567.25C177.39 565 176.48 563.88 174.64 563.88C173.65 563.88 172.88 564.16 172.34 564.74C171.8 565.31 171.54 566.09 171.54 567.07L171.54 575L168.1 575L168.1 561.18L170.98 561.18L171.23 562.85C171.67 562.21 172.28 561.7 173.08 561.32C173.88 560.93 174.74 560.74 175.67 560.74Z" />
	<path id="Layer" class="shp7" d="M54.34 548.69C54.34 547.39 55.39 546.34 56.69 546.34L100.31 546.34C101.61 546.34 102.66 547.39 102.66 548.69L102.66 578.31C102.66 579.61 101.61 580.66 100.31 580.66L56.69 580.66C55.39 580.66 54.34 579.61 54.34 578.31L54.34 548.69Z" />
	<g id="Clip-Path" clip-path="url(#cp6)">
		<g id="Layer">
			<path id="Layer" fill-rule="evenodd" class="shp22" d="M54 557.67L103 557.67L103 546L54 546L54 557.67Z" />
			<path id="Layer" fill-rule="evenodd" class="shp23" d="M54 581L103 581L103 569.33L54 569.33L54 581Z" />
			<path id="Layer" fill-rule="evenodd" class="shp24" d="M58.22 555.33C58.47 555.33 58.66 555.53 58.66 555.78L58.66 557.22C58.66 557.47 58.47 557.67 58.22 557.67L56.78 557.67C56.53 557.67 56.33 557.47 56.33 557.22L56.33 555.78C56.33 555.53 56.53 555.33 56.78 555.33L58.22 555.33ZM62.88 555.33C63.13 555.33 63.33 555.53 63.33 555.78L63.33 557.22C63.33 557.47 63.13 557.67 62.88 557.67L61.45 557.67C61.2 557.67 61 557.47 61 557.22L61 555.78C61 555.53 61.2 555.33 61.45 555.33L62.88 555.33ZM65.67 555.78C65.67 555.53 65.87 555.33 66.12 555.33L67.55 555.33C67.8 555.33 68 555.53 68 555.78L68 557.22C68 557.47 67.8 557.67 67.55 557.67L66.12 557.67C65.87 557.67 65.67 557.47 65.67 557.22L65.67 555.78ZM72.22 555.33C72.47 555.33 72.67 555.53 72.67 555.78L72.67 557.22C72.67 557.47 72.47 557.67 72.22 557.67L70.78 557.67C70.53 557.67 70.33 557.47 70.33 557.22L70.33 555.78C70.33 555.53 70.53 555.33 70.78 555.33L72.22 555.33ZM75 555.78C75 555.53 75.2 555.33 75.45 555.33L76.88 555.33C77.13 555.33 77.33 555.53 77.33 555.78L77.33 557.22C77.33 557.47 77.13 557.67 76.88 557.67L75.45 557.67C75.2 557.67 75 557.47 75 557.22L75 555.78ZM81.55 555.33C81.8 555.33 82 555.53 82 555.78L82 557.22C82 557.47 81.8 557.67 81.55 557.67L80.12 557.67C79.87 557.67 79.67 557.47 79.67 557.22L79.67 555.78C79.67 555.53 79.87 555.33 80.12 555.33L81.55 555.33ZM84.33 555.78C84.33 555.53 84.53 555.33 84.78 555.33L86.22 555.33C86.47 555.33 86.67 555.53 86.67 555.78L86.67 557.22C86.67 557.47 86.47 557.67 86.22 557.67L84.78 557.67C84.53 557.67 84.33 557.47 84.33 557.22L84.33 555.78ZM90.88 555.33C91.13 555.33 91.33 555.53 91.33 555.78L91.33 557.22C91.33 557.47 91.13 557.67 90.88 557.67L89.45 557.67C89.2 557.67 89 557.47 89 557.22L89 555.78C89 555.53 89.2 555.33 89.45 555.33L90.88 555.33ZM93.66 555.78C93.66 555.53 93.87 555.33 94.11 555.33L95.55 555.33C95.8 555.33 96 555.53 96 555.78L96 557.22C96 557.47 95.8 557.67 95.55 557.67L94.11 557.67C93.87 557.67 93.66 557.47 93.66 557.22L93.66 555.78ZM100.22 555.33C100.46 555.33 100.66 555.53 100.66 555.78L100.66 557.22C100.66 557.47 100.46 557.67 100.22 557.67L98.78 557.67C98.53 557.67 98.33 557.47 98.33 557.22L98.33 555.78C98.33 555.53 98.53 555.33 98.78 555.33L100.22 555.33ZM56.33 569.78C56.33 569.53 56.53 569.33 56.78 569.33L58.22 569.33C58.47 569.33 58.66 569.53 58.66 569.78L58.66 571.22C58.66 571.47 58.47 571.67 58.22 571.67L56.78 571.67C56.53 571.67 56.33 571.47 56.33 571.22L56.33 569.78ZM62.88 569.33C63.13 569.33 63.33 569.53 63.33 569.78L63.33 571.22C63.33 571.47 63.13 571.67 62.88 571.67L61.45 571.67C61.2 571.67 61 571.47 61 571.22L61 569.78C61 569.53 61.2 569.33 61.45 569.33L62.88 569.33ZM65.67 569.78C65.67 569.53 65.87 569.33 66.12 569.33L67.55 569.33C67.8 569.33 68 569.53 68 569.78L68 571.22C68 571.47 67.8 571.67 67.55 571.67L66.12 571.67C65.87 571.67 65.67 571.47 65.67 571.22L65.67 569.78ZM72.22 569.33C72.47 569.33 72.67 569.53 72.67 569.78L72.67 571.22C72.67 571.47 72.47 571.67 72.22 571.67L70.78 571.67C70.53 571.67 70.33 571.47 70.33 571.22L70.33 569.78C70.33 569.53 70.53 569.33 70.78 569.33L72.22 569.33ZM75 569.78C75 569.53 75.2 569.33 75.45 569.33L76.88 569.33C77.13 569.33 77.33 569.53 77.33 569.78L77.33 571.22C77.33 571.47 77.13 571.67 76.88 571.67L75.45 571.67C75.2 571.67 75 571.47 75 571.22L75 569.78ZM81.55 569.33C81.8 569.33 82 569.53 82 569.78L82 571.22C82 571.47 81.8 571.67 81.55 571.67L80.12 571.67C79.87 571.67 79.67 571.47 79.67 571.22L79.67 569.78C79.67 569.53 79.87 569.33 80.12 569.33L81.55 569.33ZM84.33 569.78C84.33 569.53 84.53 569.33 84.78 569.33L86.22 569.33C86.47 569.33 86.67 569.53 86.67 569.78L86.67 571.22C86.67 571.47 86.47 571.67 86.22 571.67L84.78 571.67C84.53 571.67 84.33 571.47 84.33 571.22L84.33 569.78ZM90.88 569.33C91.13 569.33 91.33 569.53 91.33 569.78L91.33 571.22C91.33 571.47 91.13 571.67 90.88 571.67L89.45 571.67C89.2 571.67 89 571.47 89 571.22L89 569.78C89 569.53 89.2 569.33 89.45 569.33L90.88 569.33ZM93.66 569.78C93.66 569.53 93.87 569.33 94.11 569.33L95.55 569.33C95.8 569.33 96 569.53 96 569.78L96 571.22C96 571.47 95.8 571.67 95.55 571.67L94.11 571.67C93.87 571.67 93.66 571.47 93.66 571.22L93.66 569.78ZM100.22 569.33C100.46 569.33 100.66 569.53 100.66 569.78L100.66 571.22C100.66 571.47 100.46 571.67 100.22 571.67L98.78 571.67C98.53 571.67 98.33 571.47 98.33 571.22L98.33 569.78C98.33 569.53 98.53 569.33 98.78 569.33L100.22 569.33Z" />
			<g id="Clip-Path" clip-path="url(#cp7)">
				<path id="Layer" class="shp25" d="M75.54 560.25C74.66 561.05 74.1 562.21 74.1 563.5L75.9 563.5C75.9 562.74 76.22 562.05 76.75 561.58L75.54 560.25ZM74.1 563.5C74.1 565.93 76.07 567.9 78.5 567.9L78.5 566.1C77.06 566.1 75.9 564.94 75.9 563.5L74.1 563.5ZM78.5 567.9C80.93 567.9 82.9 565.93 82.9 563.5L81.1 563.5C81.1 564.94 79.94 566.1 78.5 566.1L78.5 567.9ZM82.9 563.5C82.9 562.24 82.36 561.1 81.51 560.29L80.28 561.6C80.79 562.08 81.1 562.75 81.1 563.5L82.9 563.5Z" />
			</g>
			<path id="Layer" class="shp25" d="M77.33 563.23C77.33 562.73 77.74 562.33 78.23 562.33L78.77 562.33C79.27 562.33 79.67 562.73 79.67 563.23L79.67 566.1C79.67 566.6 79.27 567 78.77 567L78.23 567C77.74 567 77.33 566.6 77.33 566.1L77.33 563.23Z" />
		</g>
	</g>
	<path id="Layer" class="shp5" d="M341.48 563.5C342.78 563.64 343.82 564.13 344.61 564.97C345.39 565.81 345.79 566.88 345.79 568.17C345.79 569.16 345.55 570.05 345.06 570.82C344.59 571.59 343.92 572.18 343.07 572.6C342.23 573.02 341.27 573.23 340.2 573.23C339.14 573.23 338.19 573.02 337.35 572.6C336.52 572.18 335.86 571.58 335.39 570.8C334.93 570.01 334.71 569.1 334.73 568.08L337.43 568.08C337.43 568.89 337.69 569.55 338.22 570.06C338.74 570.57 339.42 570.82 340.25 570.82C341.06 570.82 341.73 570.57 342.26 570.08C342.79 569.58 343.06 568.92 343.06 568.1C343.06 567.34 342.82 566.73 342.36 566.28C341.89 565.83 341.27 565.57 340.49 565.51C340.22 565.48 339.67 565.47 338.85 565.47L337.96 565.47L337.96 563.61L341.64 559.99L335.64 559.99L335.64 557.61L345.05 557.61L345.05 559.95L341.48 563.5ZM352.29 570.53L357.99 570.53L357.99 573L348.26 573L348.26 571.03L353.73 565.1C354.19 564.61 354.57 564.13 354.85 563.65C355.13 563.16 355.27 562.63 355.27 562.05C355.27 561.38 355.05 560.84 354.61 560.43C354.18 560.01 353.62 559.8 352.91 559.8C352.1 559.8 351.46 560.06 351 560.58C350.55 561.09 350.36 561.72 350.44 562.49L347.76 562.49C347.69 561.5 347.88 560.61 348.32 559.83C348.77 559.04 349.4 558.43 350.23 557.99C351.07 557.55 352.01 557.33 353.07 557.33C354.04 557.33 354.91 557.52 355.66 557.89C356.41 558.27 356.99 558.8 357.4 559.49C357.82 560.18 358.04 560.97 358.04 561.87C358.04 562.84 357.83 563.68 357.43 564.38C357.03 565.07 356.49 565.8 355.82 566.57L352.29 570.53ZM361.62 569.68C362.2 569.68 362.68 569.89 363.07 570.29C363.46 570.69 363.66 571.23 363.66 571.9C363.66 572.98 363.31 573.89 362.59 574.62C361.88 575.34 360.97 575.76 359.85 575.86L359.85 575.02C360.56 574.91 361.1 574.66 361.48 574.27C361.86 573.88 362.05 573.45 362.03 572.95C361.88 573.03 361.68 573.07 361.43 573.07C360.97 573.07 360.59 572.93 360.27 572.64C359.96 572.35 359.81 571.96 359.81 571.47C359.81 570.95 359.97 570.52 360.31 570.19C360.64 569.85 361.08 569.68 361.62 569.68ZM372.39 563.5C373.69 563.64 374.74 564.13 375.52 564.97C376.31 565.81 376.7 566.88 376.7 568.17C376.7 569.16 376.46 570.05 375.98 570.82C375.5 571.59 374.84 572.18 373.98 572.6C373.14 573.02 372.18 573.23 371.11 573.23C370.06 573.23 369.11 573.02 368.27 572.6C367.43 572.18 366.78 571.58 366.31 570.8C365.85 570.01 365.63 569.1 365.64 568.08L368.35 568.08C368.35 568.89 368.61 569.55 369.13 570.06C369.66 570.57 370.33 570.82 371.16 570.82C371.97 570.82 372.64 570.57 373.18 570.08C373.71 569.58 373.97 568.92 373.97 568.1C373.97 567.34 373.74 566.73 373.27 566.28C372.81 565.83 372.19 565.57 371.41 565.51C371.13 565.48 370.59 565.47 369.77 565.47L368.88 565.47L368.88 563.61L372.56 559.99L366.56 559.99L366.56 557.61L375.96 557.61L375.96 559.95L372.39 563.5ZM385.47 563.5C386.77 563.64 387.82 564.13 388.6 564.97C389.39 565.81 389.78 566.88 389.78 568.17C389.78 569.16 389.54 570.05 389.06 570.82C388.58 571.59 387.91 572.18 387.06 572.6C386.22 573.02 385.26 573.23 384.19 573.23C383.14 573.23 382.19 573.02 381.34 572.6C380.51 572.18 379.86 571.58 379.39 570.8C378.93 570.01 378.7 569.1 378.72 568.08L381.43 568.08C381.43 568.89 381.69 569.55 382.21 570.06C382.73 570.57 383.41 570.82 384.24 570.82C385.05 570.82 385.72 570.57 386.25 570.08C386.79 569.58 387.05 568.92 387.05 568.1C387.05 567.34 386.82 566.73 386.35 566.28C385.89 565.83 385.27 565.57 384.48 565.51C384.21 565.48 383.66 565.47 382.84 565.47L381.95 565.47L381.95 563.61L385.63 559.99L379.63 559.99L379.63 557.61L389.04 557.61L389.04 559.95L385.47 563.5ZM396.29 570.53L401.98 570.53L401.98 573L392.25 573L392.25 571.03L397.73 565.1C398.19 564.61 398.56 564.13 398.84 563.65C399.12 563.16 399.26 562.63 399.26 562.05C399.26 561.38 399.04 560.84 398.61 560.43C398.18 560.01 397.61 559.8 396.91 559.8C396.09 559.8 395.46 560.06 395 560.58C394.54 561.09 394.36 561.72 394.43 562.49L391.75 562.49C391.69 561.5 391.88 560.61 392.31 559.83C392.76 559.04 393.39 558.43 394.22 557.99C395.06 557.55 396 557.33 397.06 557.33C398.04 557.33 398.9 557.52 399.65 557.89C400.4 558.27 400.98 558.8 401.39 559.49C401.82 560.18 402.03 560.97 402.03 561.87C402.03 562.84 401.82 563.68 401.42 564.38C401.02 565.07 400.48 565.8 399.81 566.57L396.29 570.53Z" />
	<path id="Layer" class="shp10" d="M434.35 558.38C434.95 557.66 436.05 557.66 436.65 558.38L444.95 568.34C445.76 569.32 445.07 570.8 443.8 570.8L427.2 570.8C425.93 570.8 425.24 569.32 426.05 568.34L434.35 558.38Z" />
	<path id="Layer" fill-rule="evenodd" class="shp5" d="M75.84 94.91L75.84 100L57.44 100L57.44 69.23L63.12 69.23L63.12 94.91L75.84 94.91ZM82.64 74.41C81.55 74.41 80.65 74.06 79.94 73.38C79.24 72.69 78.89 71.84 78.89 70.82C78.89 69.79 79.24 68.94 79.94 68.27C80.65 67.59 81.55 67.26 82.64 67.26C83.73 67.26 84.62 67.59 85.29 68.27C85.98 68.94 86.32 69.79 86.32 70.82C86.32 71.81 85.97 72.65 85.27 73.35C84.56 74.06 83.69 74.41 82.64 74.41ZM79.94 78.6L85.31 78.6L85.31 100L79.94 100L79.94 78.6ZM94.64 78.6L97.06 85.12C97.73 87.07 98.37 88.93 98.98 90.69C99.59 92.44 99.98 93.64 100.17 94.28C100.39 93.64 100.87 92.3 101.6 90.25C102.34 88.2 102.98 86.49 103.52 85.12L106.08 78.6L111.63 78.6L102.7 100L97.38 100L88.9 78.6L94.64 78.6ZM134.56 93.32C134.09 95.51 132.89 97.27 130.97 98.62C129.05 99.96 126.76 100.63 124.1 100.63C121.9 100.63 119.95 100.16 118.27 99.2C116.59 98.23 115.29 96.89 114.35 95.17C113.43 93.44 112.97 91.44 112.97 89.19C112.97 86.93 113.44 84.95 114.38 83.27C115.33 81.56 116.63 80.25 118.29 79.33C119.96 78.39 121.85 77.92 123.96 77.92C126.04 77.92 127.88 78.37 129.47 79.26C131.08 80.13 132.32 81.34 133.19 82.87C134.07 84.4 134.51 86.16 134.51 88.14C134.51 89.2 134.43 90.09 134.27 90.79L118.24 90.79C118.31 92.41 118.87 93.73 119.93 94.73C121.01 95.71 122.4 96.2 124.1 96.2C125.38 96.2 126.48 95.95 127.41 95.45C128.34 94.94 128.98 94.23 129.33 93.32L134.56 93.32ZM129.05 87.18C129.02 85.68 128.52 84.5 127.55 83.64C126.59 82.77 125.35 82.33 123.82 82.33C122.26 82.33 120.97 82.77 119.95 83.66C118.94 84.54 118.4 85.71 118.34 87.18L129.05 87.18ZM150.87 69.23L163.08 69.23C166.83 69.23 169.67 70.06 171.61 71.73C173.56 73.39 174.54 75.76 174.54 78.84C174.54 80.98 174.04 82.81 173.04 84.32C172.06 85.82 170.66 86.91 168.87 87.58L174.73 100L168.44 100L163.27 88.54L156.49 88.54L156.49 100L150.87 100L150.87 69.23ZM163.08 83.64C164.91 83.64 166.29 83.2 167.23 82.33C168.16 81.44 168.63 80.29 168.63 78.88C168.63 77.48 168.16 76.34 167.2 75.48C166.27 74.61 164.89 74.17 163.08 74.17L156.49 74.17L156.49 83.64L163.08 83.64ZM199.15 93.32C198.68 95.51 197.48 97.27 195.56 98.62C193.64 99.96 191.35 100.63 188.69 100.63C186.49 100.63 184.55 100.16 182.86 99.2C181.19 98.23 179.88 96.89 178.94 95.17C178.02 93.44 177.56 91.44 177.56 89.19C177.56 86.93 178.03 84.95 178.97 83.27C179.92 81.56 181.23 80.25 182.88 79.33C184.56 78.39 186.44 77.92 188.56 77.92C190.63 77.92 192.47 78.37 194.06 79.26C195.67 80.13 196.91 81.34 197.79 82.87C198.66 84.4 199.1 86.16 199.1 88.14C199.1 89.2 199.02 90.09 198.87 90.79L182.84 90.79C182.9 92.41 183.46 93.73 184.52 94.73C185.6 95.71 186.99 96.2 188.69 96.2C189.98 96.2 191.08 95.95 192 95.45C192.94 94.94 193.58 94.23 193.92 93.32L199.15 93.32ZM193.64 87.18C193.61 85.68 193.11 84.5 192.14 83.64C191.19 82.77 189.94 82.33 188.41 82.33C186.85 82.33 185.56 82.77 184.55 83.66C183.53 84.54 182.99 85.71 182.93 87.18L193.64 87.18ZM216.09 77.92C218.11 77.92 219.91 78.4 221.48 79.35C223.06 80.29 224.3 81.62 225.19 83.34C226.09 85.04 226.55 87.01 226.55 89.24C226.55 91.48 226.09 93.46 225.19 95.19C224.3 96.93 223.06 98.27 221.48 99.23C219.91 100.16 218.09 100.63 216.02 100.63C214.49 100.63 213.1 100.38 211.85 99.86C210.6 99.34 209.61 98.61 208.88 97.66L208.88 109.84L203.56 109.84L203.56 78.6L207.96 78.6L208.36 81.67C209.13 80.52 210.19 79.6 211.55 78.93C212.91 78.26 214.42 77.92 216.09 77.92ZM215.02 95.78C216.84 95.78 218.31 95.18 219.4 93.98C220.51 92.77 221.06 91.21 221.06 89.29C221.06 87.34 220.51 85.77 219.4 84.58C218.31 83.38 216.86 82.77 215.06 82.77C213.27 82.77 211.81 83.38 210.68 84.58C209.57 85.77 209.02 87.35 209.02 89.34C209.02 91.29 209.57 92.85 210.68 94.02C211.79 95.19 213.23 95.78 215.02 95.78ZM230.02 89.29C230.02 87.12 230.51 85.17 231.49 83.45C232.49 81.72 233.88 80.37 235.64 79.4C237.42 78.41 239.44 77.92 241.71 77.92C243.98 77.92 246 78.41 247.78 79.4C249.56 80.37 250.94 81.72 251.93 83.45C252.93 85.17 253.43 87.12 253.43 89.29C253.43 91.43 252.93 93.37 251.93 95.1C250.94 96.84 249.56 98.19 247.78 99.18C246.02 100.15 243.99 100.63 241.71 100.63C239.44 100.63 237.42 100.15 235.64 99.18C233.88 98.19 232.49 96.84 231.49 95.13C230.51 93.39 230.02 91.44 230.02 89.29ZM235.52 89.24C235.52 91.16 236.1 92.74 237.26 93.98C238.41 95.21 239.9 95.83 241.71 95.83C243.57 95.83 245.08 95.21 246.23 93.98C247.39 92.74 247.97 91.16 247.97 89.24C247.97 87.32 247.39 85.75 246.23 84.53C245.08 83.3 243.57 82.68 241.71 82.68C239.88 82.68 238.39 83.3 237.23 84.53C236.09 85.75 235.52 87.32 235.52 89.24ZM268.64 78.39C269.34 78.41 270.02 78.48 270.66 78.6L270.66 83.19C270.08 83.13 269.66 83.1 269.39 83.1C267.47 83.1 265.98 83.64 264.94 84.72C263.91 85.78 263.39 87.29 263.39 89.24L263.39 100L258.02 100L258.02 78.6L262.88 78.6L263.34 81.67C263.66 80.61 264.29 79.8 265.24 79.23C266.19 78.67 267.33 78.39 268.64 78.39ZM286.78 83.01L282.7 83.01L282.7 100L277.34 100L277.34 83.01L273.26 83.01L273.26 78.6L277.34 78.6L277.34 72.98L282.7 72.98L282.7 78.6L286.78 78.6L286.78 83.01ZM299.18 100.63C296.52 100.63 294.36 100.01 292.69 98.76C291.03 97.51 290.14 95.83 290.02 93.72L295.29 93.72C295.35 94.64 295.73 95.35 296.44 95.85C297.14 96.35 298.04 96.6 299.13 96.6C300.23 96.6 301.07 96.39 301.66 95.97C302.27 95.55 302.58 94.94 302.58 94.14C302.58 93.41 302.34 92.88 301.85 92.55C301.38 92.2 300.77 91.95 300 91.8L296.39 90.93C294.38 90.48 292.89 89.72 291.94 88.66C291 87.58 290.53 86.29 290.53 84.79C290.53 82.71 291.32 81.05 292.9 79.8C294.49 78.55 296.56 77.92 299.09 77.92C301.62 77.92 303.66 78.55 305.23 79.8C306.79 81.05 307.6 82.69 307.66 84.74L302.39 84.74C302.39 83.88 302.08 83.2 301.45 82.7C300.83 82.2 300.01 81.95 298.99 81.95C298.07 81.95 297.34 82.16 296.79 82.56C296.24 82.95 295.97 83.52 295.97 84.25C295.97 84.98 296.18 85.5 296.6 85.8C297.04 86.08 297.67 86.32 298.5 86.52L302.63 87.46C304.48 87.91 305.86 88.69 306.75 89.78C307.66 90.86 308.11 92.16 308.11 93.67C308.11 95.78 307.3 97.47 305.67 98.73C304.06 100 301.9 100.63 299.18 100.63Z" />
	<g id="Layer">
		<path id="Layer" class="shp1" d="M361 68.17C361 64.76 363.76 62 367.17 62L440.83 62C444.24 62 447 64.76 447 68.17L447 104.79C447 108.19 444.24 110.95 440.83 110.95L367.17 110.95C363.76 110.95 361 108.19 361 104.79L361 68.17Z" />
	</g>
	<path id="Layer" class="shp26" d="M384.22 93.89L376.88 86.54L384.22 79.2" />
	<path id="Layer" class="shp27" d="M423.18 79.07L430.53 86.41L423.18 93.75" />
	<path id="Layer" class="shp28" d="M404.45 77.67L404.45 95.02" />
</svg>